<svg width="22" height="22" viewBox="0 0 22 22" fill="none" xmlns="http://www.w3.org/2000/svg">
<path fill-rule="evenodd" clip-rule="evenodd" d="M4.20925 14.0289C2.14871 8.97118 5.86955 3.4375 11.3309 3.4375H11.6255C15.7099 3.4375 19.0209 6.74851 19.0209 10.8328C19.0209 15.3803 15.3345 19.0667 10.787 19.0667H3.61845C3.32671 19.0667 3.06674 18.8825 2.96992 18.6073C2.87309 18.3321 2.9605 18.0258 3.18796 17.8431L4.99516 16.3918C5.07418 16.3283 5.10213 16.2205 5.06389 16.1266L4.20925 14.0289ZM11.3309 4.8125C6.84606 4.8125 3.79052 9.35674 5.48263 13.5101L6.33727 15.6079C6.60494 16.2649 6.40927 17.0196 5.85613 17.4639L5.57247 17.6917H10.787C14.5751 17.6917 17.6459 14.6209 17.6459 10.8328C17.6459 7.5079 14.9505 4.8125 11.6255 4.8125H11.3309Z" fill="#6D747A"/>
</svg>
