<svg width="22" height="22" viewBox="0 0 22 22" fill="none" xmlns="http://www.w3.org/2000/svg">
<path fill-rule="evenodd" clip-rule="evenodd" d="M8.18509 4.09775C7.01981 3.96752 5.81356 3.96752 4.64828 4.09775C4.36513 4.1294 4.14183 4.35361 4.10998 4.62591C3.97083 5.81569 3.97083 7.01763 4.10998 8.20741C4.14183 8.47972 4.36513 8.70392 4.64828 8.73557C5.81356 8.86581 7.01981 8.86581 8.18509 8.73557C8.46824 8.70392 8.69154 8.47972 8.72339 8.20741C8.86254 7.01763 8.86254 5.81569 8.72339 4.62591C8.69154 4.35361 8.46824 4.1294 8.18509 4.09775ZM4.49555 2.73126C5.76234 2.58968 7.07103 2.58968 8.33782 2.73126C9.24609 2.83278 9.98166 3.54776 10.0891 4.46618C10.2406 5.76208 10.2406 7.07124 10.0891 8.36714C9.98166 9.28556 9.24609 10.0005 8.33782 10.1021C7.07103 10.2436 5.76234 10.2436 4.49555 10.1021C3.58728 10.0005 2.85171 9.28556 2.74429 8.36714C2.59272 7.07124 2.59272 5.76208 2.74429 4.46618C2.85171 3.54776 3.58728 2.83278 4.49555 2.73126Z" fill="#6D747A"/>
<path fill-rule="evenodd" clip-rule="evenodd" d="M8.18509 13.2644C7.01981 13.1342 5.81356 13.1342 4.64828 13.2644C4.36513 13.2961 4.14183 13.5203 4.10998 13.7926C3.97083 14.9824 3.97083 16.1843 4.10998 17.3741C4.14183 17.6464 4.36513 17.8706 4.64828 17.9022C5.81356 18.0325 7.01981 18.0325 8.18509 17.9022C8.46824 17.8706 8.69154 17.6464 8.72339 17.3741C8.86254 16.1843 8.86254 14.9824 8.72339 13.7926C8.69154 13.5203 8.46824 13.2961 8.18509 13.2644ZM4.49555 11.8979C5.76234 11.7563 7.07103 11.7563 8.33782 11.8979C9.24609 11.9994 9.98166 12.7144 10.0891 13.6328C10.2406 14.9288 10.2406 16.2379 10.0891 17.5338C9.98166 18.4522 9.24609 19.1672 8.33782 19.2687C7.07103 19.4103 5.76234 19.4103 4.49555 19.2687C3.58728 19.1672 2.85171 18.4522 2.74429 17.5338C2.59272 16.2379 2.59272 14.9288 2.74429 13.6328C2.85171 12.7144 3.58728 11.9994 4.49555 11.8979Z" fill="#6D747A"/>
<path fill-rule="evenodd" clip-rule="evenodd" d="M17.3518 4.09775C16.1865 3.96752 14.9802 3.96752 13.8149 4.09775C13.5318 4.1294 13.3085 4.35361 13.2766 4.62591C13.1375 5.81569 13.1375 7.01763 13.2766 8.20741C13.3085 8.47972 13.5318 8.70392 13.8149 8.73557C14.9802 8.86581 16.1865 8.86581 17.3518 8.73557C17.6349 8.70392 17.8582 8.47972 17.8901 8.20741C18.0292 7.01763 18.0292 5.81569 17.8901 4.62591C17.8582 4.35361 17.6349 4.1294 17.3518 4.09775ZM13.6622 2.73126C14.929 2.58968 16.2377 2.58968 17.5045 2.73126C18.4128 2.83278 19.1483 3.54776 19.2557 4.46618C19.4073 5.76208 19.4073 7.07124 19.2557 8.36714C19.1483 9.28556 18.4128 10.0005 17.5045 10.1021C16.2377 10.2436 14.929 10.2436 13.6622 10.1021C12.7539 10.0005 12.0184 9.28556 11.911 8.36714C11.7594 7.07124 11.7594 5.76208 11.911 4.46618C12.0184 3.54776 12.7539 2.83278 13.6622 2.73126Z" fill="#6D747A"/>
<path fill-rule="evenodd" clip-rule="evenodd" d="M17.3518 13.2644C16.1865 13.1342 14.9802 13.1342 13.8149 13.2644C13.5318 13.2961 13.3085 13.5203 13.2766 13.7926C13.1375 14.9824 13.1375 16.1843 13.2766 17.3741C13.3085 17.6464 13.5318 17.8706 13.8149 17.9022C14.9802 18.0325 16.1865 18.0325 17.3518 17.9022C17.6349 17.8706 17.8582 17.6464 17.8901 17.3741C18.0292 16.1843 18.0292 14.9824 17.8901 13.7926C17.8582 13.5203 17.6349 13.2961 17.3518 13.2644ZM13.6622 11.8979C14.929 11.7563 16.2377 11.7563 17.5045 11.8979C18.4128 11.9994 19.1483 12.7144 19.2557 13.6328C19.4073 14.9288 19.4073 16.2379 19.2557 17.5338C19.1483 18.4522 18.4128 19.1672 17.5045 19.2687C16.2377 19.4103 14.929 19.4103 13.6622 19.2687C12.7539 19.1672 12.0184 18.4522 11.911 17.5338C11.7594 16.2379 11.7594 14.9288 11.911 13.6328C12.0184 12.7144 12.7539 11.9994 13.6622 11.8979Z" fill="#6D747A"/>
</svg>
