<svg width="22" height="22" viewBox="0 0 22 22" fill="none" xmlns="http://www.w3.org/2000/svg">
<path fill-rule="evenodd" clip-rule="evenodd" d="M10.6353 17.083C10.7526 17.1534 10.878 17.1845 10.9999 17.183C11.1218 17.1845 11.2472 17.1534 11.3645 17.083L12.4052 16.4586C14.4461 15.234 16.9422 15.034 19.1521 15.918C19.9673 16.2441 20.8541 15.6437 20.8541 14.7657V4.07839C20.8541 3.5486 20.5315 3.07219 20.0396 2.87543C17.1933 1.7369 13.9784 1.9945 11.3497 3.57174L10.9999 3.78158L10.6502 3.57174C8.02146 1.9945 4.80652 1.7369 1.96019 2.87543C1.4683 3.07219 1.14575 3.5486 1.14575 4.07839V14.7657C1.14575 15.6437 2.03253 16.2441 2.84774 15.918C5.05764 15.034 7.55373 15.234 9.59468 16.4586L10.6353 17.083ZM2.52075 4.13231V14.5702C5.08356 13.6095 7.94906 13.8677 10.3021 15.2796L10.3124 15.2857V4.97259L9.94275 4.75079C7.69785 3.40385 4.95573 3.17621 2.52075 4.13231ZM11.6977 15.2796L11.6874 15.2857V4.97259L12.0571 4.75079C14.302 3.40385 17.0441 3.17621 19.4791 4.13231V14.5702C16.9163 13.6095 14.0508 13.8677 11.6977 15.2796Z" fill="#6D747A"/>
<path d="M8.50215 17.4554C6.64695 16.3732 4.35289 16.3732 2.49769 17.4554L2.40351 17.5103C2.07553 17.7016 1.96475 18.1226 2.15607 18.4506C2.34739 18.7786 2.76836 18.8893 3.09633 18.698L3.19051 18.6431C4.61759 17.8106 6.38225 17.8106 7.80933 18.6431L8.80598 19.2245C10.1617 20.0153 11.8381 20.0153 13.1939 19.2245L14.1905 18.6431C15.6176 17.8106 17.3822 17.8106 18.8093 18.6431L18.9035 18.698C19.2315 18.8893 19.6524 18.7786 19.8438 18.4506C20.0351 18.1226 19.9243 17.7016 19.5963 17.5103L19.5021 17.4554C17.6469 16.3732 15.3529 16.3732 13.4977 17.4554L12.501 18.0368C11.5734 18.5779 10.4264 18.5779 9.4988 18.0368L8.50215 17.4554Z" fill="#6D747A"/>
</svg>
